<svg xmlns="http://www.w3.org/2000/svg" viewBox="0 0 100 100">
  <circle cx="50" cy="50" r="45" fill="#2e8555" stroke="#1a5b3b" stroke-width="3"/>
  <rect x="20" y="20" width="15" height="15" rx="3" fill="white"/>
  <rect x="42.5" y="20" width="15" height="15" rx="3" fill="white"/>
  <rect x="65" y="20" width="15" height="15" rx="3" fill="white"/>
  <rect x="20" y="42.5" width="15" height="15" rx="3" fill="white"/>
  <rect x="42.5" y="42.5" width="15" height="15" rx="3" fill="white"/>
  <rect x="65" y="42.5" width="15" height="15" rx="3" fill="white"/>
  <rect x="20" y="65" width="15" height="15" rx="3" fill="white"/>
  <rect x="42.5" y="65" width="15" height="15" rx="3" fill="white"/>
  <rect x="65" y="65" width="15" height="15" rx="3" fill="white"/>
  <line x1="35" y1="27.5" x2="42.5" y2="27.5" stroke="white" stroke-width="2"/>
  <line x1="57.5" y1="27.5" x2="65" y2="27.5" stroke="white" stroke-width="2"/>
  <line x1="27.5" y1="35" x2="27.5" y2="42.5" stroke="white" stroke-width="2"/>
  <line x1="50" y1="35" x2="50" y2="42.5" stroke="white" stroke-width="2"/>
  <line x1="72.5" y1="35" x2="72.5" y2="42.5" stroke="white" stroke-width="2"/>
</svg> 